<?xml version="1.0" encoding="utf-8"?>
<!-- Generator: Adobe Illustrator 24.0.1, SVG Export Plug-In . SVG Version: 6.00 Build 0)  -->
<svg version="1.1" id="Layer_1" xmlns="http://www.w3.org/2000/svg" xmlns:xlink="http://www.w3.org/1999/xlink" x="0px" y="0px"
	 width="30px" height="30px" viewBox="0 0 30 30" style="enable-background:new 0 0 30 30;" xml:space="preserve">
<style type="text/css">
	.st0{fill-rule:evenodd;clip-rule:evenodd;fill:#2D1601;}
	.st1{fill-rule:evenodd;clip-rule:evenodd;fill:#F44B00;}
</style>
<circle class="st0" cx="15" cy="15" r="3.2"/>
<g>
	<circle class="st0" cx="15.1" cy="3.5" r="3.2"/>
	<circle class="st0" cx="6.9" cy="6.8" r="3.2"/>
	<circle class="st0" cx="3.5" cy="14.9" r="3.2"/>
	<circle class="st0" cx="6.8" cy="23.1" r="3.2"/>
	<circle class="st0" cx="14.9" cy="26.5" r="3.2"/>
	<circle class="st0" cx="23.1" cy="23.2" r="3.2"/>
	<circle class="st0" cx="26.5" cy="15.1" r="3.2"/>
	<circle class="st0" cx="23.2" cy="6.9" r="3.2"/>
	<path class="st1" d="M15.1,3.6C8.7,3.6,3.5,8.8,3.5,15.2s5.2,11.6,11.6,11.6s11.6-5.2,11.6-11.6S21.6,3.6,15.1,3.6z M15.1,21
		c-3.2,0-5.8-2.6-5.8-5.8s2.6-5.8,5.8-5.8S21,12,21,15.2S18.4,21,15.1,21z"/>
</g>
</svg>
