<?xml version="1.0" encoding="utf-8"?>
<!-- Generator: Adobe Illustrator 24.0.1, SVG Export Plug-In . SVG Version: 6.00 Build 0)  -->
<svg version="1.1" id="Layer_1" xmlns="http://www.w3.org/2000/svg" xmlns:xlink="http://www.w3.org/1999/xlink" x="0px" y="0px"
	 width="30px" height="30px" viewBox="0 0 30 30" style="enable-background:new 0 0 30 30;" xml:space="preserve">
<circle style="fill-rule:evenodd;clip-rule:evenodd;fill:#2D1601;" cx="15" cy="15" r="3.16"/>
<g>
	<circle style="fill-rule:evenodd;clip-rule:evenodd;fill:#2D1601;" cx="15.11" cy="3.46" r="3.16"/>
	<circle style="fill-rule:evenodd;clip-rule:evenodd;fill:#2D1601;" cx="6.91" cy="6.76" r="3.16"/>
	<circle style="fill-rule:evenodd;clip-rule:evenodd;fill:#2D1601;" cx="3.46" cy="14.89" r="3.16"/>
	<circle style="fill-rule:evenodd;clip-rule:evenodd;fill:#2D1601;" cx="6.76" cy="23.09" r="3.16"/>
	<circle style="fill-rule:evenodd;clip-rule:evenodd;fill:#2D1601;" cx="14.89" cy="26.54" r="3.16"/>
	<circle style="fill-rule:evenodd;clip-rule:evenodd;fill:#2D1601;" cx="23.09" cy="23.24" r="3.16"/>
	<circle style="fill-rule:evenodd;clip-rule:evenodd;fill:#2D1601;" cx="26.54" cy="15.11" r="3.16"/>
	<circle style="fill-rule:evenodd;clip-rule:evenodd;fill:#2D1601;" cx="23.24" cy="6.91" r="3.16"/>
	<path style="fill-rule:evenodd;clip-rule:evenodd;fill:#F44B00;" d="M15.15,3.57C8.73,3.57,3.52,8.77,3.52,15.2
		s5.21,11.63,11.63,11.63s11.63-5.21,11.63-11.63S21.58,3.57,15.15,3.57z M15.15,21.01c-3.21,0-5.82-2.61-5.82-5.82
		s2.61-5.82,5.82-5.82s5.82,2.61,5.82,5.82S18.36,21.01,15.15,21.01z"/>
</g>
</svg>
